<svg width="16" height="16" viewBox="0 0 16 16" fill="none" xmlns="http://www.w3.org/2000/svg">
<g clip-path="url(#clip0_23_35)">
<path d="M3.466 7.194C3.766 7.194 4.02 7.254 4.228 7.374C4.44 7.494 4.628 7.634 4.792 7.794C4.956 7.954 5.114 8.094 5.266 8.214C5.418 8.334 5.586 8.394 5.77 8.394C6.018 8.394 6.24 8.296 6.436 8.1C6.632 7.904 6.806 7.662 6.958 7.374L7.678 7.746C7.562 7.974 7.42 8.206 7.252 8.442C7.084 8.674 6.878 8.87 6.634 9.03C6.39 9.186 6.09 9.264 5.734 9.264C5.454 9.264 5.21 9.204 5.002 9.084C4.798 8.964 4.612 8.824 4.444 8.664C4.28 8.504 4.116 8.364 3.952 8.244C3.792 8.124 3.618 8.064 3.43 8.064C3.17 8.064 2.946 8.162 2.758 8.358C2.57 8.55 2.398 8.79 2.242 9.078L1.522 8.724C1.642 8.488 1.784 8.252 1.948 8.016C2.112 7.78 2.316 7.584 2.56 7.428C2.808 7.272 3.11 7.194 3.466 7.194ZM10.0373 4.872L14.6513 7.722V8.754L10.0973 11.604L9.55131 10.86L13.7873 8.244L9.55131 5.634L10.0373 4.872Z" fill="white"/>
</g>
<defs>
<clipPath id="clip0_23_35">
<rect width="16" height="16" fill="white"/>
</clipPath>
</defs>
</svg>
