<svg width="45" height="43" viewBox="0 0 45 43" fill="none" xmlns="http://www.w3.org/2000/svg">
<path d="M22.0338 0C19.1403 0 16.2751 0.569921 13.6018 1.67722C10.9286 2.78452 8.49957 4.40752 6.45355 6.45354C2.32141 10.5857 0 16.1901 0 22.0338C0 31.7727 6.3237 40.0354 15.0711 42.9659C16.1728 43.1421 16.5253 42.4591 16.5253 41.8642C16.5253 41.3574 16.5253 39.9693 16.5253 38.1405C10.422 39.4625 9.12199 35.1879 9.12199 35.1879C8.10843 32.632 6.67624 31.949 6.67624 31.949C4.67116 30.5829 6.83047 30.627 6.83047 30.627C9.03385 30.7812 10.2016 32.8964 10.2016 32.8964C12.1186 36.2456 15.3575 35.254 16.6135 34.7252C16.8118 33.293 17.3847 32.3236 18.0016 31.7727C13.1101 31.2219 7.97623 29.327 7.97623 20.9321C7.97623 18.4863 8.81351 16.5253 10.2457 14.9609C10.0254 14.4101 9.25419 12.1186 10.466 9.14402C10.466 9.14402 12.3169 8.54911 16.5253 11.3915C18.266 10.9067 20.1609 10.6643 22.0338 10.6643C23.9067 10.6643 25.8016 10.9067 27.5422 11.3915C31.7507 8.54911 33.6015 9.14402 33.6015 9.14402C34.8134 12.1186 34.0422 14.4101 33.8219 14.9609C35.2541 16.5253 36.0913 18.4863 36.0913 20.9321C36.0913 29.349 30.9354 31.1998 26.0219 31.7507C26.8151 32.4337 27.5422 33.7778 27.5422 35.8269V41.8642C27.5422 42.4591 27.8948 43.1642 29.0185 42.9659C37.7659 40.0133 44.0676 31.7727 44.0676 22.0338C44.0676 19.1403 43.4976 16.2751 42.3903 13.6018C41.283 10.9286 39.66 8.49957 37.614 6.45354C35.568 4.40752 33.139 2.78452 30.4657 1.67722C27.7925 0.569921 24.9273 0 22.0338 0Z" fill="#F0FFFB"/>
</svg>
