<svg width="44" height="44" viewBox="0 0 44 44" fill="none" xmlns="http://www.w3.org/2000/svg">
<path fill-rule="evenodd" clip-rule="evenodd" d="M0 3.67583C0 2.70094 0.387278 1.76598 1.07663 1.07663C1.76598 0.387278 2.70094 0 3.67583 0H40.324C40.8069 0 41.2849 0.0950843 41.7307 0.279813C42.1767 0.464541 42.5819 0.735293 42.9233 1.07663C43.2646 1.41796 43.5354 1.82318 43.7202 2.26914C43.9048 2.71512 44 3.19311 44 3.67583V40.324C44 40.8069 43.9048 41.2849 43.7202 41.7307C43.5354 42.1767 43.2646 42.5819 42.9233 42.9233C42.5819 43.2646 42.1767 43.5354 41.7307 43.7202C41.2849 43.9048 40.8069 44 40.324 44H3.67583C2.70094 44 1.76598 43.6126 1.07663 42.9233C0.387278 42.2339 0 41.2991 0 40.324V3.67583ZM17.4166 16.775H23.3751V19.7689C24.2339 18.0472 26.4348 16.5 29.7411 16.5C36.079 16.5 37.5833 19.9265 37.5833 26.2138V37.8583H31.1666V27.6457C31.1666 24.0653 30.3078 22.0458 28.1233 22.0458C25.0937 22.0458 23.8333 24.2229 23.8333 27.6457V37.8583H17.4166V16.775ZM6.41665 37.5833H12.8333V16.5H6.41665V37.5833ZM13.75 9.62498C13.75 10.1667 13.6433 10.7031 13.436 11.2035C13.2287 11.704 12.9248 12.1588 12.5418 12.5418C12.1588 12.9248 11.704 13.2287 11.2035 13.436C10.7031 13.6433 10.1667 13.75 9.62498 13.75C9.08329 13.75 8.54689 13.6433 8.04642 13.436C7.54594 13.2287 7.09122 12.9248 6.70816 12.5418C6.32513 12.1588 6.02129 11.704 5.81398 11.2035C5.60669 10.7031 5.49999 10.1667 5.49999 9.62498C5.49999 8.53097 5.93459 7.48176 6.70816 6.70816C7.48176 5.93459 8.53097 5.49999 9.62498 5.49999C10.719 5.49999 11.7682 5.93459 12.5418 6.70816C13.3154 7.48176 13.75 8.53097 13.75 9.62498Z" fill="#E0FBFC"/>
</svg>
